<?xml version="1.0" encoding="utf-8"?>
<!-- Generator: Adobe Illustrator 23.0.1, SVG Export Plug-In . SVG Version: 6.00 Build 0)  -->
<svg version="1.1"
	 id="svg88" xmlns:cc="http://creativecommons.org/ns#" xmlns:dc="http://purl.org/dc/elements/1.1/" xmlns:rdf="http://www.w3.org/1999/02/22-rdf-syntax-ns#" xmlns:svg="http://www.w3.org/2000/svg"
	 xmlns="http://www.w3.org/2000/svg" xmlns:xlink="http://www.w3.org/1999/xlink" x="0px" y="0px" viewBox="0 0 1252 160.5"
	 style="enable-background:new 0 0 1252 160.5;" xml:space="preserve">
<style type="text/css">
	.st0{fill:#383838;}
	.st1{fill:#FA96BE;}
	.st2{fill:#7AF02B;}
	.st3{fill:#BEFA96;}
</style>
<g id="g3806" transform="translate(-0.963297,2.5141469)">
	<g id="g3761">
		<polygon class="st0" points="130.8,157.4 119.5,157.4 119.5,132.6 130.4,132.6 130.4,135.3 122.1,135.3 122.1,143.1 130,143.1 
			130,145.8 122.1,145.8 122.1,154.7 130.8,154.7 		"/>
		<polygon class="st0" points="151.6,157.4 158.2,144.8 152.1,132.6 155.5,132.6 160,141.8 164.6,132.6 167.8,132.6 161.6,144.8 
			168.2,157.4 164.8,157.4 159.8,147.4 154.8,157.4 		"/>
		<path class="st0" d="M187.4,132.6h6.3c2.2,0,7.7,0,7.7,7.1c0,4.6-2.9,7.2-7.2,7.2h-3.8v10.5h-3.1L187.4,132.6L187.4,132.6z
			 M190.5,144.4h3.6c2.2,0,4.1-1.5,4.1-4.8c0-2.7-1.3-4.5-4.3-4.5h-3.4L190.5,144.4L190.5,144.4z"/>
		<polygon class="st0" points="234.3,157.4 221,157.4 221,132.6 233.8,132.6 233.8,135.3 224.1,135.3 224.1,143.1 233.3,143.1 
			233.3,145.8 224.1,145.8 224.1,154.7 234.3,154.7 		"/>
		<path class="st0" d="M253.9,132.6h8c3.9,0,6.4,2.3,6.4,6.2c0,2.7-0.9,5.6-3.8,6.3v0.1c2.2,0.2,3.4,2,3.5,4.1l0.2,4.2
			c0.1,2.7,0.6,3.4,1.3,3.9h-3.7c-0.5-0.5-0.8-2.4-0.8-3.6l-0.2-3.9c-0.2-3.4-2.1-3.6-3.7-3.6H257v11.1h-3.1V132.6L253.9,132.6z
			 M257,143.8h3c1.8,0,5.1,0,5.1-4.8c0-2.4-1.6-4-4.5-4H257V143.8L257,143.8z"/>
		<polygon class="st0" points="293.3,135.3 287.1,135.3 287.1,132.6 302.7,132.6 302.7,135.3 296.4,135.3 296.4,157.4 293.3,157.4 
					"/>
		<polygon class="st0" points="349.2,157.4 346.1,157.4 346.1,132.6 350.1,132.6 358.3,153.3 358.3,153.3 358.3,132.6 361.4,132.6 
			361.4,157.4 357.2,157.4 349.2,137.3 349.2,137.3 		"/>
		<path class="st0" d="M387.7,132.6h4.1l6.7,24.8h-3.2l-1.8-6.8h-7.9l-1.8,6.8h-3.2L387.7,132.6z M386.2,148.1h6.7l-3.2-12h-0.1
			L386.2,148.1z"/>
		<polygon class="st0" points="420,135.3 413.7,135.3 413.7,132.6 429.3,132.6 429.3,135.3 423,135.3 423,157.4 420,157.4 		"/>
		<path class="st0" d="M448.5,132.6h3.1v17.5c0,3.7,1.2,5.4,4.2,5.4c3.3,0,4.2-1.9,4.2-5.4v-17.5h3.1v17.5c0,4.8-2.4,7.9-7.3,7.9
			c-5,0-7.3-2.7-7.3-7.9L448.5,132.6L448.5,132.6z"/>
		<path class="st0" d="M483.7,132.6h8c3.9,0,6.4,2.3,6.4,6.2c0,2.7-0.9,5.6-3.8,6.3v0.1c2.2,0.2,3.4,2,3.5,4.1l0.2,4.2
			c0.1,2.7,0.6,3.4,1.3,3.9h-3.7c-0.5-0.5-0.8-2.4-0.8-3.6l-0.2-3.9c-0.2-3.4-2.1-3.6-3.7-3.6h-4.1v11.1h-3.1L483.7,132.6z
			 M486.8,143.8h3c1.8,0,5.1,0,5.1-4.8c0-2.4-1.6-4-4.5-4h-3.6V143.8L486.8,143.8z"/>
		<polygon class="st0" points="532,157.4 518.8,157.4 518.8,132.6 531.6,132.6 531.6,135.3 521.8,135.3 521.8,143.1 531.1,143.1 
			531.1,145.8 521.8,145.8 521.8,154.7 532,154.7 		"/>
		<polygon class="st0" points="564.8,157.4 551.7,157.4 551.7,132.6 554.7,132.6 554.7,154.7 564.8,154.7 		"/>
		<polygon class="st0" points="621.5,157.4 608.3,157.4 608.3,132.6 621.1,132.6 621.1,135.3 611.3,135.3 611.3,143.1 620.5,143.1 
			620.5,145.8 611.3,145.8 611.3,154.7 621.5,154.7 		"/>
		<polygon class="st0" points="644.2,157.4 641.1,157.4 641.1,132.6 645.1,132.6 653.3,153.3 653.4,153.3 653.4,132.6 656.4,132.6 
			656.4,157.4 652.2,157.4 644.3,137.3 644.2,137.3 		"/>
		<path class="st0" d="M712.1,139c0-2.6-0.9-4.4-3.9-4.4c-2.6,0-4.1,1.4-4.1,4c0,7,11.7,2.8,11.7,11.9c0,5.7-4.2,7.4-7.7,7.4
			c-5.8,0-7.5-3-7.5-8.3h3.1c0,2.8,0.2,5.8,4.7,5.8c2.4,0,4.3-1.7,4.3-4.4c0-7-11.7-3-11.7-12.1c0-2.3,1-6.8,7.3-6.8
			c4.7,0,6.9,2.4,7,6.9L712.1,139z"/>
		<path class="st0" d="M751.4,145c0,6.3-1.1,12.9-8,12.9s-8-6.6-8-12.9c0-6.3,1.1-12.9,8-12.9S751.4,138.7,751.4,145 M738.6,145
			c0,5.7,0.6,10.4,4.8,10.4s4.8-4.7,4.8-10.4s-0.6-10.4-4.8-10.4C739.1,134.6,738.6,139.2,738.6,145"/>
		<rect id="rect46" x="771.8" y="132.6" class="st0" width="3.1" height="24.8"/>
		<polygon class="st0" points="798.7,157.4 795.7,157.4 795.7,132.6 799.6,132.6 807.8,153.3 807.9,153.3 807.9,132.6 810.9,132.6 
			810.9,157.4 806.7,157.4 798.8,137.3 798.7,137.3 		"/>
		<path class="st0" d="M842.4,139c0-2.6-0.9-4.4-3.9-4.4c-2.6,0-4.1,1.4-4.1,4c0,7,11.7,2.8,11.7,11.9c0,5.7-4.2,7.4-7.7,7.4
			c-5.8,0-7.5-3-7.5-8.3h3.1c0,2.8,0.2,5.8,4.7,5.8c2.4,0,4.3-1.7,4.3-4.4c0-7-11.7-3-11.7-12.1c0-2.3,1-6.8,7.3-6.8
			c4.7,0,6.9,2.4,6.9,6.9L842.4,139z"/>
		<path class="st0" d="M902.8,150.5c0.5-1.3,0.8-2.6,1-4.8h2.7c0,1.8-1.1,6-2,7.2l3.2,4.5h-3.3l-1.7-2.3c-1.9,1.8-3.4,2.8-6.1,2.8
			c-6,0-7.4-4.6-7.4-6.9c0-2.6,1.4-4.9,3.4-6.4l1.8-1.4l-0.8-1.3c-0.9-1.4-1.8-2.8-1.8-4.5c0-2.9,2.3-4.9,5.1-4.9
			c3.1,0,5.3,1.4,5.3,4.7c0,2.4-1.7,4-3.4,5.4l-0.9,0.8L902.8,150.5z M895.8,145.1c-2,1.2-3.5,3.1-3.5,5.7c0,3,2.1,4.6,4.6,4.6
			c1.9,0,3.3-1,4.4-2.4L895.8,145.1z M897.3,141c1.1-1.1,2.2-2,2.2-3.7c0-1.4-1-2.4-2.5-2.4s-2.5,1-2.5,2.4c0,1.1,0.7,2.4,1.5,3.5
			l0.6,0.8L897.3,141z"/>
		<path class="st0" d="M950.8,132.6h7.6c3.2,0,6.4,1.5,6.4,6.4c0,2.3-1.3,4.5-3.6,5.2v0.1c3,0.7,4.4,3.1,4.4,6.1c0,5-2.9,7.1-8,7.1
			h-6.8L950.8,132.6L950.8,132.6z M953.9,143.3h3.5c1.3,0,4.2-0.3,4.2-4.1c0-2.6-1.3-4.1-4.3-4.1h-3.4V143.3L953.9,143.3z
			 M953.9,154.9h4.2c3.2,0,4.3-2.2,4.3-4.6c0-3.4-2.2-4.7-4.9-4.7h-3.7L953.9,154.9L953.9,154.9z"/>
		<polygon class="st0" points="998.8,157.4 985.6,157.4 985.6,132.6 998.4,132.6 998.4,135.3 988.6,135.3 988.6,143.1 997.9,143.1 
			997.9,145.8 988.6,145.8 988.6,154.7 998.8,154.7 		"/>
		<path class="st0" d="M1024.5,132.6h4.1l6.7,24.8h-3.2l-1.8-6.8h-7.9l-1.8,6.8h-3.2L1024.5,132.6z M1023,148.1h6.7l-3.2-12h-0.1
			L1023,148.1z"/>
		<path class="st0" d="M1053.5,132.6h3.1v17.5c0,3.7,1.2,5.4,4.2,5.4c3.3,0,4.2-1.9,4.2-5.4v-17.5h3.1v17.5c0,4.8-2.4,7.9-7.3,7.9
			c-5,0-7.3-2.7-7.3-7.9L1053.5,132.6L1053.5,132.6z"/>
		<polygon class="st0" points="1093.6,135.3 1087.3,135.3 1087.3,132.6 1102.9,132.6 1102.9,135.3 1096.6,135.3 1096.6,157.4 
			1093.6,157.4 		"/>
		<path class="st0" d="M1122.2,132.6h12.8v2.7h-9.8v7.8h9.2v2.7h-9.2v8.9h10.2v2.7h-13.2V132.6z M1129.4,126.3h3.4l-3.8,4.9h-2.1
			L1129.4,126.3z"/>
	</g>
	<g id="g3726">
		<path class="st1" d="M97.9-0.1h13.8l38.5,98.4H132l-8.3-22.5H84.9l-8.1,22.5H59L97.9-0.1z M118.1,60.8l-13.8-40l-14,40H118.1z"/>
		<path class="st1" d="M182.6-0.1h31.1C230.9-0.1,247,6,247,28.1c0,14.2-7.5,24.6-20.7,26.7l23.8,43.5h-19.2l-20.7-41.7h-11.6v41.7
			h-15.9L182.6-0.1z M210.9,41.6c9,0,19.5-0.8,19.5-13.6c0-11.7-9.9-13.1-18.1-13.1h-13.8v26.7H210.9z"/>
		<path class="st1" d="M325-2.6c27.9-0.6,47.6,20,47.6,51.6c0,30.7-19.7,51.3-47.6,51.9c-27.5,0-47.3-20.6-47.3-51.3
			C277.7,18,297.4-2.6,325-2.6 M325.1,85c18.6,0,30.8-15.6,30.8-36.6c0-19.6-12.3-35.2-30.8-35.2s-30.7,15.6-30.7,35.2
			C294.4,69.4,306.7,85,325.1,85"/>
		<polygon class="st1" points="447.6,98.3 420.4,16.6 420.2,16.6 420.2,98.3 405,98.3 405,-0.1 429.3,-0.1 453.2,68.9 477.3,-0.1 
			501.3,-0.1 501.3,98.3 486.1,98.3 486.1,16.6 485.9,16.6 458.7,98.3 		"/>
		<path class="st1" d="M572.6-0.1h13.8l38.5,98.4h-18.2l-8.3-22.5h-38.8l-8.1,22.5h-17.8L572.6-0.1z M592.8,60.8l-13.8-40l-14,40
			H592.8z"/>
	</g>
	<g id="g3732">
		<polygon class="st0" points="793.4,82.5 841.2,15.8 794.2,15.8 794.2,-0.1 861,-0.1 861,15.8 812.9,82.5 861.8,82.5 861.8,98.3 
			793.4,98.3 		"/>
		<path class="st0" d="M939.6-2.6c27.9-0.6,47.6,20,47.6,51.6c0,30.7-19.7,51.3-47.6,51.9c-27.5,0-47.3-20.6-47.3-51.3
			C892.4,18,912.1-2.6,939.6-2.6 M939.8,85c18.6,0,30.8-15.6,30.8-36.6c0-19.6-12.3-35.2-30.8-35.2c-18.4,0-30.7,15.6-30.7,35.2
			C909.1,69.4,921.3,85,939.8,85"/>
		<polygon class="st0" points="1036.1,22.8 1035.8,22.8 1035.8,98.3 1019.9,98.3 1019.9,-0.1 1041,-0.1 1084.3,73 1084.6,73.3 
			1084.3,73.3 1084.6,73 1084.6,-0.1 1100.5,-0.1 1100.5,98.3 1080.3,98.3 		"/>
		<polygon class="st0" points="1196.2,98.3 1134.7,98.3 1134.7,-0.1 1193.9,-0.1 1193.9,15.8 1150.6,15.8 1150.6,39.9 1191.7,39.9 
			1191.7,55.8 1150.6,55.8 1150.6,82.5 1196.2,82.5 		"/>
	</g>
	<g id="g3771">
		<path class="st2" d="M659.5,58.4c1.1-2.2,2.9-4.9,4.6-7.2c9.9-13.2,25.7-21.7,43.4-21.7h27.6c7.5,0,14.3-3.1,19.1-8
			c0.3-0.4,0.8-0.5,1.2-0.3c0.5,0.2,0.3,0.8,0.1,1.2c-1.1,2.2-2.9,4.9-4.6,7.2c-9.9,13.2-25.7,21.7-43.4,21.7h-27.6
			c-7.5,0-14.3,3.1-19.2,8c-0.3,0.4-0.8,0.5-1.1,0.3C659.1,59.3,659.3,58.7,659.5,58.4"/>
		<path class="st3" d="M755.4,38.7c-0.4-0.2-0.8,0-1.2,0.3c-2.8,2.8-20.9,20.8-46.8,20.8l0,0h-27.6c-6.1,0-11.9,3.5-15.8,8.9
			c-1.7,2.3-3.5,5-4.6,7.2c-0.2,0.4-0.4,1,0.1,1.2c0.4,0.2,0.8,0,1.1-0.3c4.9-4.9,11.7-8,19.2-8h27.6l0,0c17.8,0,33.5-8.5,43.4-21.7
			c1.7-2.3,3.5-4.9,4.6-7.1C755.7,39.5,755.9,38.9,755.4,38.7"/>
	</g>
</g>
</svg>
