<?xml version="1.0" encoding="utf-8"?>
<!-- Generator: Adobe Illustrator 23.0.1, SVG Export Plug-In . SVG Version: 6.00 Build 0)  -->
<svg version="1.1"
	 id="svg88" xmlns:cc="http://creativecommons.org/ns#" xmlns:dc="http://purl.org/dc/elements/1.1/" xmlns:rdf="http://www.w3.org/1999/02/22-rdf-syntax-ns#" xmlns:svg="http://www.w3.org/2000/svg"
	 xmlns="http://www.w3.org/2000/svg" xmlns:xlink="http://www.w3.org/1999/xlink" x="0px" y="0px" viewBox="0 0 1252 160.5"
	 style="enable-background:new 0 0 1252 160.5;" xml:space="preserve">
<style type="text/css">
	.st0{fill:#383838;}
	.st1{fill:#FA96BE;}
	.st2{fill:#7AF02B;}
	.st3{fill:#BEFA96;}
</style>
<g id="g3806" transform="translate(-0.963297,2.5141469)">
	<g id="g3761">
		<polygon class="st0" points="130.8,156.4 119.5,156.4 119.5,131.6 130.4,131.6 130.4,134.3 122.1,134.3 122.1,142.1 130,142.1 
			130,144.8 122.1,144.8 122.1,153.7 130.8,153.7 		"/>
		<polygon class="st0" points="151.6,156.4 158.2,143.8 152.1,131.6 155.5,131.6 160,140.8 164.6,131.6 167.8,131.6 161.6,143.8 
			168.2,156.4 164.8,156.4 159.8,146.4 154.8,156.4 		"/>
		<path class="st0" d="M187.4,131.6h6.3c2.2,0,7.7,0,7.7,7.1c0,4.6-2.9,7.2-7.2,7.2h-3.8v10.5h-3.1L187.4,131.6L187.4,131.6z
			 M190.5,143.4h3.6c2.2,0,4.1-1.5,4.1-4.8c0-2.7-1.3-4.5-4.3-4.5h-3.4L190.5,143.4L190.5,143.4z"/>
		<polygon class="st0" points="234.3,156.4 221,156.4 221,131.6 233.8,131.6 233.8,134.3 224.1,134.3 224.1,142.1 233.3,142.1 
			233.3,144.8 224.1,144.8 224.1,153.7 234.3,153.7 		"/>
		<path class="st0" d="M253.9,131.6h8c3.9,0,6.4,2.3,6.4,6.2c0,2.7-0.9,5.6-3.8,6.3v0.1c2.2,0.2,3.4,2,3.5,4.1l0.2,4.2
			c0.1,2.7,0.6,3.4,1.3,3.9h-3.7c-0.5-0.5-0.8-2.4-0.8-3.6l-0.2-3.9c-0.2-3.4-2.1-3.6-3.7-3.6H257v11.1h-3.1V131.6L253.9,131.6z
			 M257,142.8h3c1.8,0,5.1,0,5.1-4.8c0-2.4-1.6-4-4.5-4H257V142.8L257,142.8z"/>
		<polygon class="st0" points="293.3,134.3 287.1,134.3 287.1,131.6 302.7,131.6 302.7,134.3 296.4,134.3 296.4,156.4 293.3,156.4 
					"/>
		<polygon class="st0" points="349.2,156.4 346.1,156.4 346.1,131.6 350.1,131.6 358.3,152.3 358.3,152.3 358.3,131.6 361.4,131.6 
			361.4,156.4 357.2,156.4 349.2,136.3 349.2,136.3 		"/>
		<path class="st0" d="M387.7,131.6h4.1l6.7,24.8h-3.2l-1.8-6.8h-7.9l-1.8,6.8h-3.2L387.7,131.6z M386.2,147.1h6.7l-3.2-12h-0.1
			L386.2,147.1z"/>
		<polygon class="st0" points="420,134.3 413.7,134.3 413.7,131.6 429.3,131.6 429.3,134.3 423,134.3 423,156.4 420,156.4 		"/>
		<path class="st0" d="M448.5,131.6h3.1v17.5c0,3.7,1.2,5.4,4.2,5.4c3.3,0,4.2-1.9,4.2-5.4v-17.5h3.1v17.5c0,4.8-2.4,7.9-7.3,7.9
			c-5,0-7.3-2.7-7.3-7.9L448.5,131.6L448.5,131.6z"/>
		<path class="st0" d="M483.7,131.6h8c3.9,0,6.4,2.3,6.4,6.2c0,2.7-0.9,5.6-3.8,6.3v0.1c2.2,0.2,3.4,2,3.5,4.1l0.2,4.2
			c0.1,2.7,0.6,3.4,1.3,3.9h-3.7c-0.5-0.5-0.8-2.4-0.8-3.6l-0.2-3.9c-0.2-3.4-2.1-3.6-3.7-3.6h-4.1v11.1h-3.1L483.7,131.6z
			 M486.8,142.8h3c1.8,0,5.1,0,5.1-4.8c0-2.4-1.6-4-4.5-4h-3.6V142.8L486.8,142.8z"/>
		<polygon class="st0" points="532,156.4 518.8,156.4 518.8,131.6 531.6,131.6 531.6,134.3 521.8,134.3 521.8,142.1 531.1,142.1 
			531.1,144.8 521.8,144.8 521.8,153.7 532,153.7 		"/>
		<polygon class="st0" points="564.8,156.4 551.7,156.4 551.7,131.6 554.7,131.6 554.7,153.7 564.8,153.7 		"/>
		<polygon class="st0" points="621.5,156.4 608.3,156.4 608.3,131.6 621.1,131.6 621.1,134.3 611.3,134.3 611.3,142.1 620.5,142.1 
			620.5,144.8 611.3,144.8 611.3,153.7 621.5,153.7 		"/>
		<polygon class="st0" points="644.2,156.4 641.1,156.4 641.1,131.6 645.1,131.6 653.3,152.3 653.4,152.3 653.4,131.6 656.4,131.6 
			656.4,156.4 652.2,156.4 644.3,136.3 644.2,136.3 		"/>
		<path class="st0" d="M712.1,138c0-2.6-0.9-4.4-3.9-4.4c-2.6,0-4.1,1.4-4.1,4c0,7,11.7,2.8,11.7,11.9c0,5.7-4.2,7.4-7.7,7.4
			c-5.8,0-7.5-3-7.5-8.3h3.1c0,2.8,0.2,5.8,4.7,5.8c2.4,0,4.3-1.7,4.3-4.4c0-7-11.7-3-11.7-12.1c0-2.3,1-6.8,7.3-6.8
			c4.7,0,6.9,2.4,7,6.9L712.1,138z"/>
		<path class="st0" d="M751.4,144c0,6.3-1.1,12.9-8,12.9s-8-6.6-8-12.9c0-6.3,1.1-12.9,8-12.9S751.4,137.7,751.4,144 M738.6,144
			c0,5.7,0.6,10.4,4.8,10.4s4.8-4.7,4.8-10.4s-0.6-10.4-4.8-10.4C739.1,133.6,738.6,138.2,738.6,144"/>
		<rect id="rect46" x="771.8" y="131.6" class="st0" width="3.1" height="24.8"/>
		<polygon class="st0" points="798.7,156.4 795.7,156.4 795.7,131.6 799.6,131.6 807.8,152.3 807.9,152.3 807.9,131.6 810.9,131.6 
			810.9,156.4 806.7,156.4 798.8,136.3 798.7,136.3 		"/>
		<path class="st0" d="M842.4,138c0-2.6-0.9-4.4-3.9-4.4c-2.6,0-4.1,1.4-4.1,4c0,7,11.7,2.8,11.7,11.9c0,5.7-4.2,7.4-7.7,7.4
			c-5.8,0-7.5-3-7.5-8.3h3.1c0,2.8,0.2,5.8,4.7,5.8c2.4,0,4.3-1.7,4.3-4.4c0-7-11.7-3-11.7-12.1c0-2.3,1-6.8,7.3-6.8
			c4.7,0,6.9,2.4,6.9,6.9L842.4,138z"/>
		<path class="st0" d="M902.8,149.5c0.5-1.3,0.8-2.6,1-4.8h2.7c0,1.8-1.1,6-2,7.2l3.2,4.5h-3.3l-1.7-2.3c-1.9,1.8-3.4,2.8-6.1,2.8
			c-6,0-7.4-4.6-7.4-6.9c0-2.6,1.4-4.9,3.4-6.4l1.8-1.4l-0.8-1.3c-0.9-1.4-1.8-2.8-1.8-4.5c0-2.9,2.3-4.9,5.1-4.9
			c3.1,0,5.3,1.4,5.3,4.7c0,2.4-1.7,4-3.4,5.4l-0.9,0.8L902.8,149.5z M895.8,144.1c-2,1.2-3.5,3.1-3.5,5.7c0,3,2.1,4.6,4.6,4.6
			c1.9,0,3.3-1,4.4-2.4L895.8,144.1z M897.3,140c1.1-1.1,2.2-2,2.2-3.7c0-1.4-1-2.4-2.5-2.4s-2.5,1-2.5,2.4c0,1.1,0.7,2.4,1.5,3.5
			l0.6,0.8L897.3,140z"/>
		<path class="st0" d="M950.8,131.6h7.6c3.2,0,6.4,1.5,6.4,6.4c0,2.3-1.3,4.5-3.6,5.2v0.1c3,0.7,4.4,3.1,4.4,6.1c0,5-2.9,7.1-8,7.1
			h-6.8L950.8,131.6L950.8,131.6z M953.9,142.3h3.5c1.3,0,4.2-0.3,4.2-4.1c0-2.6-1.3-4.1-4.3-4.1h-3.4V142.3L953.9,142.3z
			 M953.9,153.9h4.2c3.2,0,4.3-2.2,4.3-4.6c0-3.4-2.2-4.7-4.9-4.7h-3.7L953.9,153.9L953.9,153.9z"/>
		<polygon class="st0" points="998.8,156.4 985.6,156.4 985.6,131.6 998.4,131.6 998.4,134.3 988.6,134.3 988.6,142.1 997.9,142.1 
			997.9,144.8 988.6,144.8 988.6,153.7 998.8,153.7 		"/>
		<path class="st0" d="M1024.5,131.6h4.1l6.7,24.8h-3.2l-1.8-6.8h-7.9l-1.8,6.8h-3.2L1024.5,131.6z M1023,147.1h6.7l-3.2-12h-0.1
			L1023,147.1z"/>
		<path class="st0" d="M1053.5,131.6h3.1v17.5c0,3.7,1.2,5.4,4.2,5.4c3.3,0,4.2-1.9,4.2-5.4v-17.5h3.1v17.5c0,4.8-2.4,7.9-7.3,7.9
			c-5,0-7.3-2.7-7.3-7.9V131.6L1053.5,131.6z"/>
		<polygon class="st0" points="1093.6,134.3 1087.3,134.3 1087.3,131.6 1102.9,131.6 1102.9,134.3 1096.6,134.3 1096.6,156.4 
			1093.6,156.4 		"/>
		<path class="st0" d="M1122.2,131.6h12.8v2.7h-9.8v7.8h9.2v2.7h-9.2v8.9h10.2v2.7h-13.2V131.6z M1129.4,125.3h3.4l-3.8,4.9h-2.1
			L1129.4,125.3z"/>
	</g>
	<g id="g3726">
		<path class="st1" d="M97.9-1.1h13.8l38.5,98.4H132l-8.3-22.5H84.9l-8.1,22.5H59L97.9-1.1z M118.1,59.8l-13.8-40l-14,40H118.1z"/>
		<path class="st1" d="M182.6-1.1h31.1C230.9-1.1,247,5,247,27.1c0,14.2-7.5,24.6-20.7,26.7l23.8,43.5h-19.2l-20.7-41.7h-11.6v41.7
			h-15.9L182.6-1.1z M210.9,40.6c9,0,19.5-0.8,19.5-13.6c0-11.7-9.9-13.1-18.1-13.1h-13.8v26.7H210.9z"/>
		<path class="st1" d="M325-3.6c27.9-0.6,47.6,20,47.6,51.6c0,30.7-19.7,51.3-47.6,51.9c-27.5,0-47.3-20.6-47.3-51.3
			C277.7,17,297.4-3.6,325-3.6 M325.1,84c18.6,0,30.8-15.6,30.8-36.6c0-19.6-12.3-35.2-30.8-35.2s-30.7,15.6-30.7,35.2
			C294.4,68.4,306.7,84,325.1,84"/>
		<polygon class="st1" points="447.6,97.3 420.4,15.6 420.2,15.6 420.2,97.3 405,97.3 405,-1.1 429.3,-1.1 453.2,67.9 477.3,-1.1 
			501.3,-1.1 501.3,97.3 486.1,97.3 486.1,15.6 485.9,15.6 458.7,97.3 		"/>
		<path class="st1" d="M572.6-1.1h13.8l38.5,98.4h-18.2l-8.3-22.5h-38.8l-8.1,22.5h-17.8L572.6-1.1z M592.8,59.8l-13.8-40l-14,40
			H592.8z"/>
	</g>
	<g id="g3732">
		<polygon class="st0" points="793.4,81.5 841.2,14.8 794.2,14.8 794.2,-1.1 861,-1.1 861,14.8 812.9,81.5 861.8,81.5 861.8,97.3 
			793.4,97.3 		"/>
		<path class="st0" d="M939.6-3.6c27.9-0.6,47.6,20,47.6,51.6c0,30.7-19.7,51.3-47.6,51.9c-27.5,0-47.3-20.6-47.3-51.3
			C892.4,17,912.1-3.6,939.6-3.6 M939.8,84c18.6,0,30.8-15.6,30.8-36.6c0-19.6-12.3-35.2-30.8-35.2c-18.4,0-30.7,15.6-30.7,35.2
			C909.1,68.4,921.3,84,939.8,84"/>
		<polygon class="st0" points="1036.1,21.8 1035.8,21.8 1035.8,97.3 1019.9,97.3 1019.9,-1.1 1041,-1.1 1084.3,72 1084.6,72.3 
			1084.3,72.3 1084.6,72 1084.6,-1.1 1100.5,-1.1 1100.5,97.3 1080.3,97.3 		"/>
		<polygon class="st0" points="1196.2,97.3 1134.7,97.3 1134.7,-1.1 1193.9,-1.1 1193.9,14.8 1150.6,14.8 1150.6,38.9 1191.7,38.9 
			1191.7,54.8 1150.6,54.8 1150.6,81.5 1196.2,81.5 		"/>
	</g>
	<g id="g3771">
		<path class="st2" d="M659.5,57.4c1.1-2.2,2.9-4.9,4.6-7.2c9.9-13.2,25.7-21.7,43.4-21.7h27.6c7.5,0,14.3-3.1,19.1-8
			c0.3-0.4,0.8-0.5,1.2-0.3c0.5,0.2,0.3,0.8,0.1,1.2c-1.1,2.2-2.9,4.9-4.6,7.2c-9.9,13.2-25.7,21.7-43.4,21.7h-27.6
			c-7.5,0-14.3,3.1-19.2,8c-0.3,0.4-0.8,0.5-1.1,0.3C659.1,58.3,659.3,57.7,659.5,57.4"/>
		<path class="st3" d="M755.4,37.7c-0.4-0.2-0.8,0-1.2,0.3c-2.8,2.8-20.9,20.8-46.8,20.8l0,0h-27.6c-6.1,0-11.9,3.5-15.8,8.9
			c-1.7,2.3-3.5,5-4.6,7.2c-0.2,0.4-0.4,1,0.1,1.2c0.4,0.2,0.8,0,1.1-0.3c4.9-4.9,11.7-8,19.2-8h27.6l0,0c17.8,0,33.5-8.5,43.4-21.7
			c1.7-2.3,3.5-4.9,4.6-7.1C755.7,38.5,755.9,37.9,755.4,37.7"/>
	</g>
</g>
</svg>
